# Blender v2.79 (sub 0) OBJ File: ''
# www.blender.org
mtllib Traffic-Easel.mtl
o Plane.001_Plane.008
v -0.001243 1.037265 1.320059
v -0.054842 0.871101 1.320060
v -0.001241 1.037264 -0.679941
v -0.054839 0.871101 -0.679941
v 0.055116 1.019086 1.320059
v 0.001518 0.852922 1.320060
v 0.055118 1.019085 -0.679941
v 0.001520 0.852921 -0.679941
v -0.001241 1.037264 -0.508140
v -0.001242 1.037264 -0.308140
v -0.001242 1.037264 -0.108140
v -0.001242 1.037265 0.091860
v -0.001242 1.037265 0.291860
v -0.001242 1.037265 0.491860
v -0.001243 1.037265 0.691860
v -0.001243 1.037265 0.891860
v -0.001243 1.037265 1.091860
v -0.054841 0.871101 1.091860
v -0.054841 0.871101 0.891860
v -0.054841 0.871101 0.691860
v -0.054841 0.871101 0.491860
v -0.054841 0.871101 0.291860
v -0.054840 0.871101 0.091860
v -0.054840 0.871101 -0.108140
v -0.054840 0.871101 -0.308140
v -0.054839 0.871101 -0.508140
v 0.055118 1.019085 -0.508140
v 0.055118 1.019085 -0.308140
v 0.055118 1.019085 -0.108140
v 0.055117 1.019085 0.091860
v 0.055117 1.019085 0.291860
v 0.055117 1.019085 0.491860
v 0.055117 1.019085 0.691860
v 0.055116 1.019085 0.891860
v 0.055116 1.019086 1.091860
v 0.001518 0.852922 1.091860
v 0.001518 0.852922 0.891860
v 0.001518 0.852922 0.691860
v 0.001519 0.852922 0.491860
v 0.001519 0.852921 0.291860
v 0.001519 0.852921 0.091860
v 0.001519 0.852921 -0.108140
v 0.001520 0.852921 -0.308140
v 0.001520 0.852921 -0.508140
v 0.388878 2.285373 1.320059
v 0.242793 1.832487 1.320059
v 0.388880 2.285373 -0.679941
v 0.242796 1.832487 -0.679941
v 0.445237 2.267194 1.320059
v 0.299153 1.814308 1.320059
v 0.445239 2.267193 -0.679941
v 0.299155 1.814307 -0.679941
v 0.388880 2.285373 -0.508140
v 0.388880 2.285373 -0.308140
v 0.388879 2.285373 -0.108140
v 0.388879 2.285373 0.091860
v 0.388879 2.285373 0.291860
v 0.388879 2.285373 0.491860
v 0.388878 2.285373 0.691860
v 0.388878 2.285373 0.891860
v 0.388878 2.285373 1.091860
v 0.242794 1.832487 1.091860
v 0.242794 1.832487 0.891860
v 0.242794 1.832487 0.691860
v 0.242794 1.832487 0.491860
v 0.242795 1.832487 0.291860
v 0.242795 1.832487 0.091860
v 0.242795 1.832487 -0.108140
v 0.242795 1.832487 -0.308140
v 0.242795 1.832487 -0.508140
v 0.445239 2.267193 -0.508140
v 0.445239 2.267193 -0.308140
v 0.445239 2.267193 -0.108140
v 0.445239 2.267194 0.091860
v 0.445238 2.267194 0.291860
v 0.445238 2.267194 0.491860
v 0.445238 2.267194 0.691860
v 0.445238 2.267194 0.891860
v 0.445237 2.267194 1.091860
v 0.299153 1.814308 1.091860
v 0.299153 1.814308 0.891860
v 0.299153 1.814308 0.691860
v 0.299154 1.814308 0.491860
v 0.299154 1.814308 0.291860
v 0.299154 1.814308 0.091860
v 0.299154 1.814307 -0.108140
v 0.299155 1.814307 -0.308140
v 0.299155 1.814307 -0.508140
v 0.315836 2.058930 1.320059
v 0.315838 2.058930 -0.679941
v 0.372195 2.040751 1.320059
v 0.372197 2.040750 -0.679941
v -0.124534 0.488976 1.004513
v 0.118617 0.488394 1.004513
v 0.467963 2.399198 1.004513
v 0.711114 2.398617 1.004513
v -0.124534 0.488976 1.063732
v 0.118617 0.488394 1.063732
v 0.467963 2.399198 1.063732
v 0.711114 2.398617 1.063731
v -0.124534 0.488976 -0.393709
v 0.118617 0.488395 -0.393709
v 0.467962 2.399198 -0.393709
v 0.711113 2.398617 -0.393709
v -0.124534 0.488976 -0.452928
v 0.118617 0.488395 -0.452928
v 0.467962 2.399198 -0.452928
v 0.711113 2.398617 -0.452928
v 1.181585 1.037265 -0.680482
v 1.235183 0.871101 -0.680482
v 1.181582 1.037264 1.319518
v 1.235181 0.871101 1.319518
v 1.125225 1.019086 -0.680482
v 1.178824 0.852922 -0.680482
v 1.125223 1.019085 1.319518
v 1.178821 0.852921 1.319518
v 1.181582 1.037264 1.119518
v 1.181583 1.037264 0.919518
v 1.181583 1.037264 0.719518
v 1.181583 1.037265 0.519518
v 1.181583 1.037265 0.319518
v 1.181584 1.037265 0.119518
v 1.181584 1.037265 -0.080482
v 1.181584 1.037265 -0.280482
v 1.181585 1.037265 -0.480482
v 1.235183 0.871101 -0.480482
v 1.235183 0.871101 -0.280482
v 1.235182 0.871101 -0.080482
v 1.235182 0.871101 0.119518
v 1.235182 0.871101 0.319518
v 1.235182 0.871101 0.519518
v 1.235181 0.871101 0.719518
v 1.235181 0.871101 0.919518
v 1.235181 0.871101 1.119518
v 1.125223 1.019085 1.119518
v 1.125223 1.019085 0.919518
v 1.125224 1.019085 0.719518
v 1.125224 1.019085 0.519518
v 1.125224 1.019085 0.319518
v 1.125224 1.019085 0.119518
v 1.125225 1.019085 -0.080482
v 1.125225 1.019085 -0.280482
v 1.125225 1.019086 -0.480482
v 1.178823 0.852922 -0.480482
v 1.178823 0.852922 -0.280482
v 1.178823 0.852922 -0.080482
v 1.178823 0.852922 0.119518
v 1.178823 0.852921 0.319518
v 1.178822 0.852921 0.519518
v 1.178822 0.852921 0.719518
v 1.178822 0.852921 0.919518
v 1.178822 0.852921 1.119518
v 0.791463 2.285373 -0.680482
v 0.937548 1.832487 -0.680482
v 0.791461 2.285372 1.319519
v 0.937545 1.832487 1.319518
v 0.735104 2.267194 -0.680482
v 0.881188 1.814308 -0.680482
v 0.735102 2.267193 1.319518
v 0.881186 1.814307 1.319518
v 0.791461 2.285373 1.119518
v 0.791461 2.285373 0.919518
v 0.791462 2.285373 0.719518
v 0.791462 2.285373 0.519518
v 0.791462 2.285373 0.319518
v 0.791462 2.285373 0.119518
v 0.791462 2.285373 -0.080482
v 0.791463 2.285373 -0.280482
v 0.791463 2.285373 -0.480482
v 0.937548 1.832487 -0.480482
v 0.937547 1.832487 -0.280482
v 0.937547 1.832487 -0.080482
v 0.937547 1.832487 0.119518
v 0.937547 1.832487 0.319518
v 0.937546 1.832487 0.519518
v 0.937546 1.832487 0.719518
v 0.937546 1.832487 0.919518
v 0.937546 1.832487 1.119518
v 0.735102 2.267193 1.119518
v 0.735102 2.267193 0.919518
v 0.735102 2.267193 0.719518
v 0.735103 2.267194 0.519518
v 0.735103 2.267194 0.319518
v 0.735103 2.267194 0.119518
v 0.735103 2.267194 -0.080482
v 0.735103 2.267194 -0.280482
v 0.735104 2.267194 -0.480482
v 0.881188 1.814308 -0.480482
v 0.881188 1.814308 -0.280482
v 0.881188 1.814308 -0.080482
v 0.881188 1.814308 0.119518
v 0.881187 1.814308 0.319518
v 0.881187 1.814307 0.519518
v 0.881187 1.814307 0.719518
v 0.881186 1.814307 0.919518
v 0.881186 1.814307 1.119518
v 0.864506 2.058930 -0.680482
v 0.864503 2.058930 1.319518
v 0.808146 2.040751 -0.680482
v 0.808144 2.040750 1.319518
v 1.304875 0.488976 -0.393135
v 1.061724 0.488394 -0.393135
v 0.712378 2.399198 -0.393135
v 0.469227 2.398616 -0.393135
v 1.304875 0.488976 -0.452354
v 1.061724 0.488394 -0.452354
v 0.712378 2.399198 -0.452354
v 0.469227 2.398616 -0.452353
v 1.304876 0.488976 1.005087
v 1.061725 0.488395 1.005087
v 0.712379 2.399198 1.005087
v 0.469228 2.398616 1.005087
v 1.304876 0.488976 1.064306
v 1.061725 0.488395 1.064306
v 0.712379 2.399198 1.064306
v 0.469228 2.398617 1.064306
vn 0.9517 -0.3070 0.0000
vn -0.3070 -0.9517 -0.0000
vn 0.3070 0.9517 -0.0000
vn -0.9517 0.3070 -0.0000
vn 0.0000 0.0000 1.0000
vn 0.0000 -0.0000 -1.0000
vn 0.0024 1.0000 0.0000
vn -0.0024 -1.0000 -0.0000
vn 0.9551 -0.2962 -0.0000
vn -0.9551 0.2962 0.0000
vn -0.9517 -0.3070 -0.0000
vn 0.3070 -0.9517 -0.0000
vn -0.3070 0.9517 0.0000
vn 0.9517 0.3070 0.0000
vn -0.0024 1.0000 0.0000
vn 0.0024 -1.0000 0.0000
vn -0.9551 -0.2962 0.0000
vn 0.9551 0.2962 -0.0000
usemtl Traffic-Easel-Color-1
s off
f 44//1 8//1 27//1 28//1
f 26//2 4//2 8//2 44//2
f 17//3 1//3 5//3 35//3
f 9//3 10//3 28//3 27//3
f 11//3 12//3 30//3 29//3
f 13//3 14//3 32//3 31//3
f 15//3 16//3 34//3 33//3
f 18//2 19//2 37//2 36//2
f 20//2 21//2 39//2 38//2
f 22//2 23//2 41//2 40//2
f 24//2 25//2 43//2 42//2
f 29//1 30//1 42//1 43//1
f 31//1 32//1 40//1 41//1
f 33//1 34//1 38//1 39//1
f 35//1 5//1 36//1 37//1
f 15//4 21//4 20//4 16//4
f 13//4 23//4 22//4 14//4
f 11//4 25//4 24//4 12//4
f 26//4 10//4 9//4 4//4
f 17//4 19//4 18//4 1//4
f 89//5 46//5 50//5 91//5
f 61//3 45//3 49//3 79//3
f 53//3 54//3 72//3 71//3
f 55//3 56//3 74//3 73//3
f 57//3 58//3 76//3 75//3
f 59//3 60//3 78//3 77//3
f 46//2 62//2 80//2 50//2
f 63//2 64//2 82//2 81//2
f 65//2 66//2 84//2 83//2
f 67//2 68//2 86//2 85//2
f 69//2 70//2 88//2 87//2
f 71//1 72//1 52//1 92//1
f 89//4 62//4 46//4
f 61//4 64//4 63//4 45//4
f 59//4 66//4 65//4 60//4
f 57//4 68//4 67//4 58//4
f 55//4 70//4 69//4 56//4
f 53//4 90//4 48//4 54//4
f 73//1 74//1 87//1 88//1
f 75//1 76//1 85//1 86//1
f 77//1 78//1 83//1 84//1
f 79//1 49//1 81//1 82//1
f 48//6 90//6 92//6 52//6
f 50//1 80//1 91//1
f 93//6 95//6 96//6 94//6
f 97//5 98//5 100//5 99//5
f 96//7 95//7 99//7 100//7
f 93//8 94//8 98//8 97//8
f 94//9 96//9 100//9 98//9
f 95//10 93//10 97//10 99//10
f 101//5 102//5 104//5 103//5
f 105//6 107//6 108//6 106//6
f 104//7 108//7 107//7 103//7
f 101//8 105//8 106//8 102//8
f 102//9 106//9 108//9 104//9
f 103//10 107//10 105//10 101//10
f 152//11 116//11 135//11 136//11
f 134//12 112//12 116//12 152//12
f 125//13 109//13 113//13 143//13
f 117//13 118//13 136//13 135//13
f 119//13 120//13 138//13 137//13
f 121//13 122//13 140//13 139//13
f 123//13 124//13 142//13 141//13
f 126//12 127//12 145//12 144//12
f 128//12 129//12 147//12 146//12
f 130//12 131//12 149//12 148//12
f 132//12 133//12 151//12 150//12
f 137//11 138//11 150//11 151//11
f 139//11 140//11 148//11 149//11
f 141//11 142//11 146//11 147//11
f 143//11 113//11 144//11 145//11
f 123//14 129//14 128//14 124//14
f 121//14 131//14 130//14 122//14
f 119//14 133//14 132//14 120//14
f 134//14 118//14 117//14 112//14
f 125//14 127//14 126//14 109//14
f 197//6 154//6 158//6 199//6
f 169//13 153//13 157//13 187//13
f 161//13 162//13 180//13 179//13
f 163//13 164//13 182//13 181//13
f 165//13 166//13 184//13 183//13
f 167//13 168//13 186//13 185//13
f 154//12 170//12 188//12 158//12
f 171//12 172//12 190//12 189//12
f 173//12 174//12 192//12 191//12
f 175//12 176//12 194//12 193//12
f 177//12 178//12 196//12 195//12
f 179//11 180//11 160//11 200//11
f 197//14 170//14 154//14
f 169//14 172//14 171//14 153//14
f 167//14 174//14 173//14 168//14
f 165//14 176//14 175//14 166//14
f 163//14 178//14 177//14 164//14
f 161//14 198//14 156//14 162//14
f 181//11 182//11 195//11 196//11
f 183//11 184//11 193//11 194//11
f 185//11 186//11 191//11 192//11
f 187//11 157//11 189//11 190//11
f 156//5 198//5 200//5 160//5
f 158//11 188//11 199//11
f 201//5 203//5 204//5 202//5
f 205//6 206//6 208//6 207//6
f 204//15 203//15 207//15 208//15
f 201//16 202//16 206//16 205//16
f 202//17 204//17 208//17 206//17
f 203//18 201//18 205//18 207//18
f 209//6 210//6 212//6 211//6
f 213//5 215//5 216//5 214//5
f 212//15 216//15 215//15 211//15
f 209//16 213//16 214//16 210//16
f 210//17 214//17 216//17 212//17
f 211//18 215//18 213//18 209//18
usemtl Traffic-Easel-Color-2
f 4//6 3//6 7//6 8//6
f 1//5 2//5 6//5 5//5
f 3//3 9//3 27//3 7//3
f 10//3 11//3 29//3 28//3
f 12//3 13//3 31//3 30//3
f 14//3 15//3 33//3 32//3
f 16//3 17//3 35//3 34//3
f 2//2 18//2 36//2 6//2
f 19//2 20//2 38//2 37//2
f 21//2 22//2 40//2 39//2
f 23//2 24//2 42//2 41//2
f 25//2 26//2 44//2 43//2
f 28//1 29//1 43//1 44//1
f 30//1 31//1 41//1 42//1
f 32//1 33//1 39//1 40//1
f 34//1 35//1 37//1 38//1
f 6//1 36//1 5//1
f 14//4 22//4 21//4 15//4
f 12//4 24//4 23//4 13//4
f 10//4 26//4 25//4 11//4
f 3//4 4//4 9//4
f 16//4 20//4 19//4 17//4
f 2//4 1//4 18//4
f 90//6 47//6 51//6 92//6
f 70//2 48//2 52//2 88//2
f 47//3 53//3 71//3 51//3
f 54//3 55//3 73//3 72//3
f 56//3 57//3 75//3 74//3
f 58//3 59//3 77//3 76//3
f 60//3 61//3 79//3 78//3
f 62//2 63//2 81//2 80//2
f 64//2 65//2 83//2 82//2
f 66//2 67//2 85//2 84//2
f 68//2 69//2 87//2 86//2
f 7//1 27//1 8//1
f 92//1 51//1 71//1
f 62//4 89//4 45//4 63//4
f 60//4 65//4 64//4 61//4
f 58//4 67//4 66//4 59//4
f 56//4 69//4 68//4 57//4
f 70//4 55//4 54//4 48//4
f 88//1 52//1 72//1 73//1
f 74//1 75//1 86//1 87//1
f 76//1 77//1 84//1 85//1
f 78//1 79//1 82//1 83//1
f 80//1 81//1 49//1 91//1
f 45//5 89//5 91//5 49//5
f 47//4 90//4 53//4
f 112//5 111//5 115//5 116//5
f 109//6 110//6 114//6 113//6
f 111//13 117//13 135//13 115//13
f 118//13 119//13 137//13 136//13
f 120//13 121//13 139//13 138//13
f 122//13 123//13 141//13 140//13
f 124//13 125//13 143//13 142//13
f 110//12 126//12 144//12 114//12
f 127//12 128//12 146//12 145//12
f 129//12 130//12 148//12 147//12
f 131//12 132//12 150//12 149//12
f 133//12 134//12 152//12 151//12
f 136//11 137//11 151//11 152//11
f 138//11 139//11 149//11 150//11
f 140//11 141//11 147//11 148//11
f 142//11 143//11 145//11 146//11
f 114//11 144//11 113//11
f 122//14 130//14 129//14 123//14
f 120//14 132//14 131//14 121//14
f 118//14 134//14 133//14 119//14
f 111//14 112//14 117//14
f 124//14 128//14 127//14 125//14
f 110//14 109//14 126//14
f 198//5 155//5 159//5 200//5
f 178//12 156//12 160//12 196//12
f 155//13 161//13 179//13 159//13
f 162//13 163//13 181//13 180//13
f 164//13 165//13 183//13 182//13
f 166//13 167//13 185//13 184//13
f 168//13 169//13 187//13 186//13
f 170//12 171//12 189//12 188//12
f 172//12 173//12 191//12 190//12
f 174//12 175//12 193//12 192//12
f 176//12 177//12 195//12 194//12
f 115//11 135//11 116//11
f 200//11 159//11 179//11
f 170//14 197//14 153//14 171//14
f 168//14 173//14 172//14 169//14
f 166//14 175//14 174//14 167//14
f 164//14 177//14 176//14 165//14
f 178//14 163//14 162//14 156//14
f 196//11 160//11 180//11 181//11
f 182//11 183//11 194//11 195//11
f 184//11 185//11 192//11 193//11
f 186//11 187//11 190//11 191//11
f 188//11 189//11 157//11 199//11
f 153//6 197//6 199//6 157//6
f 155//14 198//14 161//14
