# Blender v2.79 (sub 0) OBJ File: ''
# www.blender.org
mtllib Traffic-Easel.mtl
o Plane.000_Plane.007
v -0.068611 0.529675 1.319458
v -0.122209 0.363511 1.319458
v -0.068609 0.529674 -0.680542
v -0.122207 0.363510 -0.680542
v -0.012251 0.511495 1.319459
v -0.065850 0.345331 1.319459
v -0.012249 0.511494 -0.680542
v -0.065848 0.345330 -0.680542
v -0.068609 0.529674 -0.480542
v -0.068609 0.529674 -0.280542
v -0.068609 0.529674 -0.080541
v -0.068609 0.529674 0.119459
v -0.068610 0.529674 0.319459
v -0.068610 0.529674 0.519459
v -0.068610 0.529674 0.719459
v -0.068610 0.529674 0.919459
v -0.068611 0.529674 1.119459
v -0.122209 0.363511 1.119459
v -0.122209 0.363511 0.919459
v -0.122208 0.363511 0.719459
v -0.122208 0.363510 0.519459
v -0.122208 0.363510 0.319458
v -0.122208 0.363510 0.119458
v -0.122208 0.363510 -0.080542
v -0.122207 0.363510 -0.280542
v -0.122207 0.363510 -0.480542
v -0.012249 0.511494 -0.480541
v -0.012250 0.511494 -0.280541
v -0.012250 0.511494 -0.080541
v -0.012250 0.511494 0.119459
v -0.012250 0.511495 0.319459
v -0.012251 0.511495 0.519459
v -0.012251 0.511495 0.719459
v -0.012251 0.511495 0.919459
v -0.012251 0.511495 1.119459
v -0.065850 0.345331 1.119459
v -0.065849 0.345331 0.919459
v -0.065849 0.345331 0.719459
v -0.065849 0.345331 0.519459
v -0.065849 0.345331 0.319459
v -0.065848 0.345331 0.119458
v -0.065848 0.345331 -0.080542
v -0.065848 0.345331 -0.280542
v -0.065848 0.345331 -0.480541
v 0.321510 1.777783 1.319458
v 0.175426 1.324897 1.319458
v 0.321513 1.777782 -0.680542
v 0.175428 1.324896 -0.680542
v 0.377870 1.759604 1.319459
v 0.231785 1.306718 1.319459
v 0.377872 1.759603 -0.680542
v 0.231788 1.306717 -0.680542
v 0.321512 1.777782 -0.480542
v 0.321512 1.777782 -0.280542
v 0.321512 1.777782 -0.080541
v 0.321512 1.777782 0.119459
v 0.321512 1.777783 0.319459
v 0.321511 1.777783 0.519459
v 0.321511 1.777783 0.719459
v 0.321511 1.777783 0.919459
v 0.321511 1.777783 1.119459
v 0.175426 1.324897 1.119459
v 0.175426 1.324897 0.919459
v 0.175427 1.324897 0.719459
v 0.175427 1.324897 0.519458
v 0.175427 1.324896 0.319458
v 0.175427 1.324896 0.119458
v 0.175428 1.324896 -0.080542
v 0.175428 1.324896 -0.280542
v 0.175428 1.324896 -0.480541
v 0.377872 1.759603 -0.480541
v 0.377872 1.759603 -0.280541
v 0.377871 1.759603 -0.080541
v 0.377871 1.759603 0.119459
v 0.377871 1.759603 0.319459
v 0.377871 1.759603 0.519459
v 0.377870 1.759603 0.719459
v 0.377870 1.759603 0.919459
v 0.377870 1.759604 1.119459
v 0.231786 1.306717 1.119459
v 0.231786 1.306717 0.919459
v 0.231786 1.306717 0.719459
v 0.231786 1.306717 0.519459
v 0.231786 1.306717 0.319459
v 0.231787 1.306717 0.119458
v 0.231787 1.306717 -0.080542
v 0.231787 1.306717 -0.280542
v 0.231787 1.306717 -0.480541
v 0.248468 1.551340 1.319458
v 0.248470 1.551339 -0.680542
v 0.304828 1.533161 1.319459
v 0.304830 1.533160 -0.680542
v 0.304828 1.533160 1.119459
v 0.304828 1.533160 0.919459
v 0.304828 1.533160 0.719459
v 0.304828 1.533160 0.519459
v 0.304829 1.533160 0.319459
v 0.304829 1.533160 0.119459
v 0.304829 1.533160 -0.080541
v 0.304829 1.533160 -0.280541
v 0.304830 1.533160 -0.480541
v -0.191901 -0.018615 1.032112
v 0.051250 -0.019196 1.032111
v 0.400595 1.891607 1.032111
v 0.643746 1.891026 1.032111
v -0.191901 -0.018615 1.091330
v 0.051250 -0.019196 1.091330
v 0.400595 1.891607 1.091330
v 0.643746 1.891026 1.091330
v -0.191902 -0.018615 -0.366111
v 0.051249 -0.019196 -0.366110
v 0.400595 1.891607 -0.366110
v 0.643746 1.891026 -0.366111
v -0.191902 -0.018615 -0.425329
v 0.051249 -0.019196 -0.425329
v 0.400595 1.891607 -0.425329
v 0.643746 1.891026 -0.425330
v 1.110522 0.529675 -0.680482
v 1.164120 0.363511 -0.680482
v 1.110519 0.529674 1.319518
v 1.164118 0.363510 1.319518
v 1.054163 0.511495 -0.680482
v 1.107761 0.345331 -0.680482
v 1.054160 0.511494 1.319518
v 1.107759 0.345331 1.319518
v 1.110520 0.529674 1.119518
v 1.110520 0.529674 0.919518
v 1.110520 0.529674 0.719518
v 1.110520 0.529674 0.519518
v 1.110521 0.529674 0.319518
v 1.110521 0.529674 0.119518
v 1.110521 0.529674 -0.080482
v 1.110522 0.529674 -0.280482
v 1.110522 0.529674 -0.480482
v 1.164120 0.363511 -0.480482
v 1.164120 0.363511 -0.280482
v 1.164119 0.363511 -0.080482
v 1.164119 0.363510 0.119518
v 1.164119 0.363510 0.319518
v 1.164119 0.363510 0.519518
v 1.164119 0.363510 0.719518
v 1.164118 0.363510 0.919518
v 1.164118 0.363510 1.119518
v 1.054160 0.511494 1.119518
v 1.054161 0.511494 0.919518
v 1.054161 0.511494 0.719518
v 1.054161 0.511495 0.519518
v 1.054161 0.511495 0.319518
v 1.054162 0.511495 0.119518
v 1.054162 0.511495 -0.080482
v 1.054162 0.511495 -0.280482
v 1.054162 0.511495 -0.480482
v 1.107761 0.345331 -0.480482
v 1.107760 0.345331 -0.280482
v 1.107760 0.345331 -0.080482
v 1.107760 0.345331 0.119518
v 1.107760 0.345331 0.319518
v 1.107759 0.345331 0.519518
v 1.107759 0.345331 0.719518
v 1.107759 0.345331 0.919518
v 1.107759 0.345331 1.119518
v 0.720401 1.777783 -0.680482
v 0.866485 1.324897 -0.680482
v 0.720398 1.777782 1.319518
v 0.866483 1.324896 1.319518
v 0.664042 1.759604 -0.680482
v 0.810126 1.306718 -0.680482
v 0.664039 1.759603 1.319518
v 0.810123 1.306717 1.319518
v 0.720399 1.777782 1.119518
v 0.720399 1.777782 0.919518
v 0.720399 1.777782 0.719518
v 0.720399 1.777783 0.519518
v 0.720400 1.777783 0.319518
v 0.720400 1.777783 0.119518
v 0.720400 1.777783 -0.080482
v 0.720400 1.777783 -0.280482
v 0.720401 1.777783 -0.480482
v 0.866485 1.324897 -0.480482
v 0.866485 1.324897 -0.280482
v 0.866485 1.324897 -0.080482
v 0.866484 1.324897 0.119518
v 0.866484 1.324897 0.319518
v 0.866484 1.324897 0.519518
v 0.866484 1.324896 0.719518
v 0.866483 1.324896 0.919518
v 0.866483 1.324896 1.119518
v 0.664039 1.759603 1.119518
v 0.664039 1.759603 0.919518
v 0.664040 1.759603 0.719518
v 0.664040 1.759603 0.519518
v 0.664040 1.759603 0.319518
v 0.664041 1.759603 0.119518
v 0.664041 1.759603 -0.080482
v 0.664041 1.759603 -0.280482
v 0.664041 1.759604 -0.480482
v 0.810126 1.306717 -0.480482
v 0.810125 1.306717 -0.280482
v 0.810125 1.306717 -0.080482
v 0.810125 1.306717 0.119518
v 0.810125 1.306717 0.319518
v 0.810124 1.306717 0.519518
v 0.810124 1.306717 0.719518
v 0.810124 1.306717 0.919518
v 0.810124 1.306717 1.119518
v 0.793443 1.551340 -0.680482
v 0.793441 1.551339 1.319518
v 0.737084 1.533161 -0.680482
v 0.737081 1.533160 1.319518
v 0.737083 1.533160 -0.480482
v 0.737083 1.533160 -0.280482
v 0.737083 1.533160 -0.080482
v 0.737083 1.533160 0.119518
v 0.737082 1.533160 0.319518
v 0.737082 1.533160 0.519518
v 0.737082 1.533160 0.719518
v 0.737082 1.533160 0.919518
v 0.737081 1.533160 1.119518
v 1.233812 -0.018615 -0.393135
v 0.990661 -0.019196 -0.393135
v 0.641316 1.891608 -0.393135
v 0.398165 1.891026 -0.393135
v 1.233812 -0.018615 -0.452354
v 0.990661 -0.019196 -0.452354
v 0.641316 1.891608 -0.452354
v 0.398165 1.891026 -0.452353
v 1.233813 -0.018615 1.005087
v 0.990662 -0.019196 1.005087
v 0.641316 1.891608 1.005087
v 0.398165 1.891026 1.005087
v 1.233813 -0.018615 1.064306
v 0.990662 -0.019196 1.064306
v 0.641316 1.891608 1.064306
v 0.398165 1.891026 1.064306
vn 0.9517 -0.3070 0.0000
vn -0.3070 -0.9517 0.0000
vn 0.3070 0.9517 -0.0000
vn -0.9517 0.3070 -0.0000
vn -0.0000 0.0000 1.0000
vn 0.0000 -0.0000 -1.0000
vn 0.0024 1.0000 0.0000
vn -0.0024 -1.0000 -0.0000
vn 0.9551 -0.2962 -0.0000
vn -0.9551 0.2962 -0.0000
vn -0.9517 -0.3070 -0.0000
vn 0.3070 -0.9517 0.0000
vn -0.3070 0.9517 0.0000
vn 0.9517 0.3070 0.0000
vn -0.0024 1.0000 0.0000
vn 0.0024 -1.0000 0.0000
vn -0.9551 -0.2962 0.0000
vn 0.9551 0.2962 0.0000
usemtl Traffic-Easel-Color-1
s off
f 27//1 44//1 8//1 7//1
f 26//2 4//2 8//2 44//2
f 17//3 1//3 5//3 35//3
f 9//3 10//3 28//3 27//3
f 11//3 12//3 30//3 29//3
f 13//3 14//3 32//3 31//3
f 15//3 16//3 34//3 33//3
f 18//2 19//2 37//2 36//2
f 20//2 21//2 39//2 38//2
f 22//2 23//2 41//2 40//2
f 24//2 25//2 43//2 42//2
f 5//1 6//1 36//1 35//1
f 35//1 36//1 37//1 34//1
f 34//1 37//1 38//1 33//1
f 33//1 38//1 39//1 32//1
f 32//1 39//1 40//1 31//1
f 31//1 40//1 41//1 30//1
f 30//1 41//1 42//1 29//1
f 29//1 42//1 43//1 28//1
f 28//1 43//1 44//1 27//1
f 15//4 21//4 20//4 16//4
f 13//4 23//4 22//4 14//4
f 11//4 25//4 24//4 12//4
f 26//4 10//4 9//4 4//4
f 17//4 19//4 18//4 1//4
f 101//1 88//1 52//1 92//1
f 89//5 46//5 50//5 91//5
f 61//3 45//3 49//3 79//3
f 53//3 54//3 72//3 71//3
f 55//3 56//3 74//3 73//3
f 57//3 58//3 76//3 75//3
f 59//3 60//3 78//3 77//3
f 46//2 62//2 80//2 50//2
f 63//2 64//2 82//2 81//2
f 65//2 66//2 84//2 83//2
f 67//2 68//2 86//2 85//2
f 69//2 70//2 88//2 87//2
f 91//1 50//1 80//1 93//1
f 93//1 80//1 81//1 94//1
f 94//1 81//1 82//1 95//1
f 95//1 82//1 83//1 96//1
f 96//1 83//1 84//1 97//1
f 97//1 84//1 85//1 98//1
f 98//1 85//1 86//1 99//1
f 99//1 86//1 87//1 100//1
f 100//1 87//1 88//1 101//1
f 89//4 62//4 46//4
f 61//4 64//4 63//4 45//4
f 59//4 66//4 65//4 60//4
f 57//4 68//4 67//4 58//4
f 55//4 70//4 69//4 56//4
f 53//4 90//4 48//4 54//4
f 72//1 100//1 101//1 71//1
f 73//1 99//1 100//1 72//1
f 74//1 98//1 99//1 73//1
f 75//1 97//1 98//1 74//1
f 76//1 96//1 97//1 75//1
f 77//1 95//1 96//1 76//1
f 78//1 94//1 95//1 77//1
f 79//1 93//1 94//1 78//1
f 49//1 91//1 93//1 79//1
f 48//6 90//6 92//6 52//6
f 71//1 101//1 92//1 51//1
f 102//6 104//6 105//6 103//6
f 106//5 107//5 109//5 108//5
f 105//7 104//7 108//7 109//7
f 102//8 103//8 107//8 106//8
f 103//9 105//9 109//9 107//9
f 104//10 102//10 106//10 108//10
f 110//5 111//5 113//5 112//5
f 114//6 116//6 117//6 115//6
f 113//7 117//7 116//7 112//7
f 110//8 114//8 115//8 111//8
f 111//9 115//9 117//9 113//9
f 112//10 116//10 114//10 110//10
f 144//11 161//11 125//11 124//11
f 143//12 121//12 125//12 161//12
f 134//13 118//13 122//13 152//13
f 126//13 127//13 145//13 144//13
f 128//13 129//13 147//13 146//13
f 130//13 131//13 149//13 148//13
f 132//13 133//13 151//13 150//13
f 135//12 136//12 154//12 153//12
f 137//12 138//12 156//12 155//12
f 139//12 140//12 158//12 157//12
f 141//12 142//12 160//12 159//12
f 122//11 123//11 153//11 152//11
f 152//11 153//11 154//11 151//11
f 151//11 154//11 155//11 150//11
f 150//11 155//11 156//11 149//11
f 149//11 156//11 157//11 148//11
f 148//11 157//11 158//11 147//11
f 147//11 158//11 159//11 146//11
f 146//11 159//11 160//11 145//11
f 145//11 160//11 161//11 144//11
f 132//14 138//14 137//14 133//14
f 130//14 140//14 139//14 131//14
f 128//14 142//14 141//14 129//14
f 143//14 127//14 126//14 121//14
f 134//14 136//14 135//14 118//14
f 218//11 205//11 169//11 209//11
f 206//6 163//6 167//6 208//6
f 178//13 162//13 166//13 196//13
f 170//13 171//13 189//13 188//13
f 172//13 173//13 191//13 190//13
f 174//13 175//13 193//13 192//13
f 176//13 177//13 195//13 194//13
f 163//12 179//12 197//12 167//12
f 180//12 181//12 199//12 198//12
f 182//12 183//12 201//12 200//12
f 184//12 185//12 203//12 202//12
f 186//12 187//12 205//12 204//12
f 208//11 167//11 197//11 210//11
f 210//11 197//11 198//11 211//11
f 211//11 198//11 199//11 212//11
f 212//11 199//11 200//11 213//11
f 213//11 200//11 201//11 214//11
f 214//11 201//11 202//11 215//11
f 215//11 202//11 203//11 216//11
f 216//11 203//11 204//11 217//11
f 217//11 204//11 205//11 218//11
f 206//14 179//14 163//14
f 178//14 181//14 180//14 162//14
f 176//14 183//14 182//14 177//14
f 174//14 185//14 184//14 175//14
f 172//14 187//14 186//14 173//14
f 170//14 207//14 165//14 171//14
f 189//11 217//11 218//11 188//11
f 190//11 216//11 217//11 189//11
f 191//11 215//11 216//11 190//11
f 192//11 214//11 215//11 191//11
f 193//11 213//11 214//11 192//11
f 194//11 212//11 213//11 193//11
f 195//11 211//11 212//11 194//11
f 196//11 210//11 211//11 195//11
f 166//11 208//11 210//11 196//11
f 165//5 207//5 209//5 169//5
f 188//11 218//11 209//11 168//11
f 219//5 221//5 222//5 220//5
f 223//6 224//6 226//6 225//6
f 222//15 221//15 225//15 226//15
f 219//16 220//16 224//16 223//16
f 220//17 222//17 226//17 224//17
f 221//18 219//18 223//18 225//18
f 227//6 228//6 230//6 229//6
f 231//5 233//5 234//5 232//5
f 230//15 234//15 233//15 229//15
f 227//16 231//16 232//16 228//16
f 228//17 232//17 234//17 230//17
f 229//18 233//18 231//18 227//18
usemtl Traffic-Easel-Color-2
f 4//6 3//6 7//6 8//6
f 1//5 2//5 6//5 5//5
f 3//3 9//3 27//3 7//3
f 10//3 11//3 29//3 28//3
f 12//3 13//3 31//3 30//3
f 14//3 15//3 33//3 32//3
f 16//3 17//3 35//3 34//3
f 2//2 18//2 36//2 6//2
f 19//2 20//2 38//2 37//2
f 21//2 22//2 40//2 39//2
f 23//2 24//2 42//2 41//2
f 25//2 26//2 44//2 43//2
f 14//4 22//4 21//4 15//4
f 12//4 24//4 23//4 13//4
f 10//4 26//4 25//4 11//4
f 3//4 4//4 9//4
f 16//4 20//4 19//4 17//4
f 2//4 1//4 18//4
f 90//6 47//6 51//6 92//6
f 70//2 48//2 52//2 88//2
f 47//3 53//3 71//3 51//3
f 54//3 55//3 73//3 72//3
f 56//3 57//3 75//3 74//3
f 58//3 59//3 77//3 76//3
f 60//3 61//3 79//3 78//3
f 62//2 63//2 81//2 80//2
f 64//2 65//2 83//2 82//2
f 66//2 67//2 85//2 84//2
f 68//2 69//2 87//2 86//2
f 62//4 89//4 45//4 63//4
f 60//4 65//4 64//4 61//4
f 58//4 67//4 66//4 59//4
f 56//4 69//4 68//4 57//4
f 70//4 55//4 54//4 48//4
f 45//5 89//5 91//5 49//5
f 47//4 90//4 53//4
f 121//5 120//5 124//5 125//5
f 118//6 119//6 123//6 122//6
f 120//13 126//13 144//13 124//13
f 127//13 128//13 146//13 145//13
f 129//13 130//13 148//13 147//13
f 131//13 132//13 150//13 149//13
f 133//13 134//13 152//13 151//13
f 119//12 135//12 153//12 123//12
f 136//12 137//12 155//12 154//12
f 138//12 139//12 157//12 156//12
f 140//12 141//12 159//12 158//12
f 142//12 143//12 161//12 160//12
f 131//14 139//14 138//14 132//14
f 129//14 141//14 140//14 130//14
f 127//14 143//14 142//14 128//14
f 120//14 121//14 126//14
f 133//14 137//14 136//14 134//14
f 119//14 118//14 135//14
f 207//5 164//5 168//5 209//5
f 187//12 165//12 169//12 205//12
f 164//13 170//13 188//13 168//13
f 171//13 172//13 190//13 189//13
f 173//13 174//13 192//13 191//13
f 175//13 176//13 194//13 193//13
f 177//13 178//13 196//13 195//13
f 179//12 180//12 198//12 197//12
f 181//12 182//12 200//12 199//12
f 183//12 184//12 202//12 201//12
f 185//12 186//12 204//12 203//12
f 179//14 206//14 162//14 180//14
f 177//14 182//14 181//14 178//14
f 175//14 184//14 183//14 176//14
f 173//14 186//14 185//14 174//14
f 187//14 172//14 171//14 165//14
f 162//6 206//6 208//6 166//6
f 164//14 207//14 170//14
